<svg xmlns="http://www.w3.org/2000/svg" viewBox="0 0 512 512">
  <defs>
    <linearGradient id="bg" x1="0%" x2="100%" y1="0%" y2="100%">
      <stop offset="0%" stop-color="#2d1c14" />
      <stop offset="100%" stop-color="#100c0a" />
    </linearGradient>
    <linearGradient id="board" x1="0%" x2="100%" y1="0%" y2="100%">
      <stop offset="0%" stop-color="#b98349" />
      <stop offset="100%" stop-color="#8a5b2d" />
    </linearGradient>
  </defs>
  <rect width="512" height="512" rx="112" fill="url(#bg)" />
  <circle cx="256" cy="118" r="52" fill="#ffcc72" opacity="0.2" />
  <rect x="76" y="92" width="360" height="328" rx="52" fill="url(#board)" />
  <rect x="98" y="114" width="316" height="284" rx="38" fill="none" opacity="0.2" stroke="#f4dfba" stroke-width="3" />
  <text x="128" y="162" fill="#f7e4c0" font-family="Georgia, serif" font-size="34">YES</text>
  <text x="332" y="162" fill="#f7e4c0" font-family="Georgia, serif" font-size="34">NO</text>
  <text x="126" y="358" fill="#f7e4c0" font-family="Georgia, serif" font-size="34">HELLO</text>
  <text x="268" y="358" fill="#f7e4c0" font-family="Georgia, serif" font-size="34">GOODBYE</text>
  <text x="148" y="240" fill="#f7e4c0" font-family="Georgia, serif" font-size="26" letter-spacing="8">OU I JA</text>
  <g transform="translate(256 270) rotate(45)">
    <path d="M0 -86 C62 -86 84 -34 84 8 C84 74 34 102 0 102 C-34 102 -84 74 -84 8 C-84 -34 -62 -86 0 -86 Z" fill="#603617" stroke="#f4dfba" stroke-opacity="0.28" stroke-width="6" />
    <circle cx="0" cy="-4" r="28" fill="#f4e7d0" stroke="#31180d" stroke-width="10" />
  </g>
</svg>
